<?xml version="1.0" encoding="UTF-8"?>
<svg xmlns="http://www.w3.org/2000/svg" xmlns:xlink="http://www.w3.org/1999/xlink" width="128px" height="128px" viewBox="0 0 128 128" version="1.1">
<g id="surface1">
<path style=" stroke:none;fill-rule:nonzero;fill:rgb(0%,0%,0%);fill-opacity:1;" d="M 24.640625 10.125 C 22.105469 10.175781 19.902344 10.265625 19.75 10.304688 C 18.96875 10.496094 18.046875 11.839844 18.046875 12.800781 C 18.046875 13.09375 18.175781 13.582031 18.355469 13.9375 C 18.625 14.453125 18.777344 14.59375 19.339844 14.824219 C 19.699219 14.976562 20.160156 15.105469 20.363281 15.105469 C 20.558594 15.105469 20.851562 15.15625 21.019531 15.230469 C 21.761719 15.550781 33.574219 15.667969 67.226562 15.707031 L 101.621094 15.742188 L 103.296875 17.445312 C 104.21875 18.367188 105.191406 19.457031 105.445312 19.839844 C 106.152344 20.902344 106.292969 21.542969 106.34375 23.898438 C 106.378906 26.046875 106.304688 26.496094 105.882812 26.496094 C 105.5625 26.496094 104.460938 27.097656 103.921875 27.570312 C 103.667969 27.789062 103.128906 28.222656 102.734375 28.542969 C 102.324219 28.863281 101.722656 29.363281 101.390625 29.65625 C 101.070312 29.953125 100.199219 30.71875 99.457031 31.359375 C 98.714844 32.011719 97.945312 32.71875 97.726562 32.945312 C 97.523438 33.175781 96.769531 33.867188 96.0625 34.496094 C 95.359375 35.136719 94.054688 36.363281 93.171875 37.246094 C 92.273438 38.132812 89.175781 41.175781 86.285156 44.03125 C 83.378906 46.886719 79.898438 50.328125 78.527344 51.671875 L 76.042969 54.144531 L 54.886719 54.15625 C 27.636719 54.183594 27.070312 54.195312 25.445312 55.257812 C 24.84375 55.65625 24.664062 56.128906 24.730469 57.089844 C 24.792969 57.984375 24.972656 58.226562 25.933594 58.699219 C 27.519531 59.46875 29.121094 59.53125 51.226562 59.597656 L 70.503906 59.648438 L 70.167969 60.042969 C 69.8125 60.453125 68.8125 61.503906 64.613281 65.765625 L 62.222656 68.199219 L 54.308594 68.273438 C 41.832031 68.402344 36.070312 68.621094 34.753906 69.003906 C 33.191406 69.453125 32.640625 69.925781 32.539062 70.898438 C 32.511719 71.246094 32.511719 71.679688 32.5625 71.859375 C 32.753906 72.640625 33.945312 73.511719 35.136719 73.753906 C 36.800781 74.085938 39.9375 74.1875 54.4375 74.355469 L 55.960938 74.367188 L 55.71875 74.753906 C 55.589844 74.957031 55.207031 75.546875 54.847656 76.058594 C 54.105469 77.132812 53.566406 78.042969 52.941406 79.296875 C 52.289062 80.613281 51.585938 82.265625 51.585938 82.484375 C 51.585938 82.585938 51.40625 83.199219 51.1875 83.867188 C 50.675781 85.390625 50.585938 85.785156 50.355469 87.425781 C 50.253906 88.167969 50.113281 89.113281 50.035156 89.535156 C 49.484375 92.789062 49.230469 97.089844 49.496094 98.496094 C 49.691406 99.53125 50.238281 100.414062 51.367188 101.542969 C 52.632812 102.808594 53.246094 103.257812 54.578125 103.871094 L 55.601562 104.332031 L 57.140625 104.28125 C 57.996094 104.242188 59.035156 104.152344 59.457031 104.078125 C 59.878906 103.988281 60.773438 103.847656 61.441406 103.742188 C 62.105469 103.65625 62.898438 103.5 63.207031 103.4375 C 63.5 103.359375 63.988281 103.230469 64.292969 103.15625 C 64.589844 103.078125 65.265625 102.9375 65.792969 102.847656 C 67.046875 102.617188 67.53125 102.488281 69.222656 102.003906 C 69.476562 101.925781 70.066406 101.785156 70.527344 101.695312 C 70.988281 101.605469 71.796875 101.375 72.320312 101.183594 C 72.84375 101.003906 73.433594 100.800781 73.613281 100.734375 C 74.152344 100.570312 74.777344 100.210938 75.390625 99.726562 C 76.132812 99.125 80.398438 95.335938 81.152344 94.59375 C 81.484375 94.273438 82.484375 93.324219 83.390625 92.480469 C 84.289062 91.636719 85.796875 90.1875 86.71875 89.28125 C 87.65625 88.359375 89.34375 86.71875 90.496094 85.632812 C 91.636719 84.542969 95.679688 80.539062 99.46875 76.75 L 106.367188 69.847656 L 106.367188 109.9375 L 106.085938 110.09375 C 105.921875 110.183594 105.28125 110.71875 104.640625 111.28125 C 104.011719 111.859375 103.230469 112.5 102.925781 112.703125 C 102.617188 112.921875 102.132812 113.253906 101.835938 113.445312 C 101.542969 113.636719 100.902344 113.996094 100.390625 114.238281 C 99.570312 114.625 99.441406 114.738281 99.148438 115.316406 C 98.878906 115.839844 98.816406 116.132812 98.816406 116.964844 C 98.816406 118.117188 99.046875 118.605469 99.839844 119.140625 C 100.25 119.410156 100.390625 119.4375 101.503906 119.386719 C 102.769531 119.335938 103 119.28125 104.574219 118.71875 C 106.675781 117.964844 109.351562 115.917969 110.425781 114.238281 C 111.410156 112.691406 112.089844 110.746094 112.382812 108.609375 C 112.433594 108.1875 112.523438 107.726562 112.5625 107.585938 C 112.792969 106.855469 112.945312 96.804688 112.984375 80.972656 L 113.023438 63.449219 L 113.484375 62.886719 C 113.742188 62.578125 114.929688 61.324219 116.132812 60.097656 C 117.351562 58.867188 118.71875 57.445312 119.195312 56.921875 C 119.679688 56.398438 120.398438 55.628906 120.792969 55.207031 C 123.699219 52.1875 125.796875 49.511719 126.617188 47.796875 L 127.167969 46.65625 L 127.167969 41.921875 L 126.617188 40.769531 C 126.308594 40.128906 125.824219 39.296875 125.53125 38.910156 C 125.234375 38.527344 124.902344 38.09375 124.800781 37.9375 C 122.675781 34.878906 115.957031 28.210938 113.855469 27.046875 C 113.472656 26.828125 113.125 25.753906 113.011719 24.382812 C 112.769531 21.554688 112.5625 20.59375 111.78125 18.816406 C 110.273438 15.359375 108.289062 13.105469 105.546875 11.710938 C 104.730469 11.300781 104.292969 11.175781 103.246094 11.035156 C 99.710938 10.558594 95.691406 10.394531 83.96875 10.253906 C 70.078125 10.085938 29.847656 9.996094 24.640625 10.125 Z M 111.15625 32.71875 C 111.65625 32.972656 112.292969 33.382812 112.574219 33.625 C 115.355469 36.007812 116.453125 37.054688 118.59375 39.359375 C 119.886719 40.742188 121.152344 42.523438 121.472656 43.390625 L 121.691406 43.96875 L 121.191406 44.929688 C 120.921875 45.453125 120.550781 46.09375 120.382812 46.335938 C 119.347656 47.796875 119.105469 48.128906 119.015625 48.128906 C 118.964844 48.128906 118.835938 48.28125 118.734375 48.472656 C 118.628906 48.679688 117.734375 49.664062 116.734375 50.675781 L 114.945312 52.53125 L 112.179688 49.714844 C 110.65625 48.179688 107.46875 44.953125 105.101562 42.558594 L 100.773438 38.207031 L 101.554688 37.53125 C 101.992188 37.160156 102.976562 36.261719 103.742188 35.519531 C 104.523438 34.777344 105.191406 34.175781 105.253906 34.175781 C 105.304688 34.175781 105.585938 33.957031 105.894531 33.691406 C 106.1875 33.40625 106.804688 32.984375 107.265625 32.730469 C 108.03125 32.292969 108.171875 32.257812 109.171875 32.257812 C 110.15625 32.257812 110.324219 32.292969 111.15625 32.71875 Z M 98.40625 44.710938 C 99.265625 45.542969 107.609375 53.875 109.734375 56.027344 L 110.605469 56.910156 L 110.246094 57.253906 C 110.054688 57.433594 109.234375 58.226562 108.429688 59.007812 C 107.621094 59.777344 106.917969 60.414062 106.867188 60.414062 C 106.816406 60.414062 104.242188 57.894531 101.160156 54.808594 C 98.0625 51.738281 94.910156 48.628906 94.15625 47.910156 C 93.414062 47.179688 92.800781 46.527344 92.800781 46.453125 C 92.800781 46.246094 94.003906 44.964844 95.28125 43.828125 L 96.292969 42.90625 L 96.871094 43.355469 C 97.191406 43.597656 97.882812 44.210938 98.40625 44.710938 Z M 95.5 57.972656 L 102.488281 64.945312 L 91.839844 75.585938 C 81.984375 85.425781 78.628906 88.664062 77.734375 89.214844 C 77.53125 89.332031 77.300781 89.535156 77.195312 89.652344 C 77.09375 89.777344 76.671875 90.046875 76.25 90.265625 L 75.496094 90.636719 L 74.765625 90.355469 C 73.546875 89.882812 72.613281 88.804688 71.589844 86.757812 C 70.835938 85.246094 70.207031 84.339844 69.351562 83.507812 C 68.621094 82.789062 67.035156 81.664062 66.765625 81.664062 C 66.675781 81.664062 66.074219 81.371094 65.421875 81.011719 C 64.230469 80.34375 63.105469 79.28125 63.105469 78.824219 C 63.105469 78.707031 63.039062 78.453125 62.949219 78.273438 C 62.578125 77.453125 63.859375 75.507812 66.816406 72.421875 C 67.277344 71.9375 68.199219 70.976562 68.863281 70.273438 C 72.050781 66.894531 88.230469 50.828125 88.371094 50.90625 C 88.449219 50.945312 91.660156 54.132812 95.5 57.972656 Z M 59.429688 84.210938 C 61.3125 86.054688 62.539062 86.859375 63.910156 87.15625 C 64.652344 87.320312 65.175781 87.960938 66.035156 89.675781 C 67.160156 91.941406 68.992188 94.425781 69.976562 95 C 70.207031 95.140625 70.398438 95.296875 70.398438 95.359375 C 70.398438 95.5 69.363281 95.871094 68.980469 95.871094 C 68.148438 95.871094 66.378906 94.898438 64.78125 93.566406 C 63.089844 92.160156 58.574219 87.488281 57.90625 86.464844 C 57.355469 85.605469 57.320312 85.402344 57.585938 84.621094 C 57.714844 84.222656 57.867188 83.6875 57.921875 83.417969 C 57.957031 83.160156 58.023438 82.945312 58.0625 82.945312 C 58.097656 82.945312 58.714844 83.519531 59.429688 84.210938 Z M 57.34375 94.976562 C 57.804688 95.4375 58.535156 96.230469 58.96875 96.71875 L 59.761719 97.613281 L 59.339844 97.765625 C 58.839844 97.945312 58.113281 97.957031 57.703125 97.804688 C 57.535156 97.742188 57.152344 97.613281 56.832031 97.523438 C 56.089844 97.320312 55.832031 97.089844 55.539062 96.410156 C 55.195312 95.617188 55.21875 95.308594 55.71875 93.914062 L 55.847656 93.554688 L 56.179688 93.847656 C 56.359375 94.003906 56.882812 94.515625 57.34375 94.976562 Z M 57.34375 94.976562 "/>
<path style=" stroke:none;fill-rule:nonzero;fill:rgb(0%,0%,0%);fill-opacity:1;" d="M 84.222656 65.753906 C 83.25 66.214844 81.90625 67.097656 81.214844 67.710938 C 81.011719 67.902344 80.742188 68.109375 80.628906 68.171875 C 80.332031 68.328125 78.4375 70.066406 77.695312 70.847656 C 76.660156 71.9375 76.097656 72.679688 75.609375 73.601562 C 75.199219 74.367188 75.136719 74.585938 75.136719 75.355469 C 75.136719 76.8125 75.660156 77.351562 77.285156 77.582031 C 78.578125 77.761719 79.460938 77.542969 80.691406 76.710938 C 83.546875 74.753906 86.644531 71.667969 87.796875 69.621094 C 88.152344 68.980469 88.191406 68.800781 88.191406 67.8125 C 88.191406 66.894531 88.140625 66.664062 87.898438 66.292969 C 87.117188 65.140625 85.875 64.945312 84.222656 65.753906 Z M 84.222656 65.753906 "/>
<path style=" stroke:none;fill-rule:nonzero;fill:rgb(0%,0%,0%);fill-opacity:1;" d="M 11.058594 11.058594 C 10.277344 11.25 9.90625 11.46875 8.550781 12.558594 C 5.796875 14.769531 4.492188 16.5 4.019531 18.585938 C 3.917969 19.035156 3.777344 19.621094 3.699219 19.902344 C 3.046875 22.414062 2.789062 30.644531 2.894531 46.335938 C 2.917969 52.351562 3.007812 65.242188 3.070312 74.957031 L 3.1875 92.644531 L 3.636719 93.582031 C 3.878906 94.105469 4.328125 95.078125 4.632812 95.742188 C 4.929688 96.410156 5.402344 97.382812 5.671875 97.894531 C 5.925781 98.417969 6.144531 98.90625 6.144531 98.980469 C 6.144531 99.136719 7.296875 101.183594 8 102.273438 C 8.292969 102.734375 8.640625 103.269531 8.769531 103.488281 C 8.894531 103.691406 9.164062 104.078125 9.371094 104.320312 C 9.5625 104.5625 10.164062 105.320312 10.699219 105.984375 C 13.003906 108.863281 16.984375 112.523438 19.839844 114.394531 C 21.644531 115.570312 25 117.375 25.394531 117.375 C 25.496094 117.375 25.996094 117.554688 26.507812 117.773438 C 27.761719 118.308594 28.042969 118.398438 29.246094 118.617188 C 34.34375 119.539062 36.289062 119.589844 61.566406 119.589844 C 88.308594 119.578125 92.980469 119.4375 94.695312 118.539062 C 96.039062 117.847656 96.078125 116.390625 94.769531 115.570312 C 93.734375 114.929688 88.894531 114.535156 79.167969 114.316406 C 76.210938 114.253906 72.359375 114.164062 70.59375 114.113281 C 65.355469 113.972656 54.9375 113.777344 49.664062 113.714844 L 44.734375 113.664062 L 43.058594 111.949219 C 41.484375 110.347656 41.355469 110.183594 40.921875 109.132812 C 40.664062 108.503906 40.449219 107.917969 40.449219 107.8125 C 40.449219 107.710938 40.398438 107.519531 40.320312 107.390625 C 40.257812 107.265625 40.128906 106.277344 40.0625 105.191406 C 39.988281 104.113281 39.871094 102.453125 39.808594 101.503906 C 39.617188 98.726562 39.410156 96.589844 38.988281 93.054688 C 38.707031 90.699219 38.488281 89.753906 37.902344 88.511719 C 37.144531 86.886719 35.699219 85.542969 33.726562 84.609375 C 32.21875 83.890625 32.0625 83.839844 31.105469 83.621094 C 30.644531 83.53125 30.015625 83.390625 29.695312 83.316406 C 27.597656 82.839844 25.753906 82.699219 20.097656 82.574219 C 14.988281 82.457031 15.078125 82.46875 13.566406 81.742188 C 12.980469 81.460938 11.339844 80.152344 10.238281 79.105469 C 9.984375 78.859375 9.535156 78.4375 9.242188 78.183594 L 8.71875 77.707031 L 8.664062 72.550781 C 8.640625 69.707031 8.550781 60.941406 8.460938 53.054688 C 8.320312 38.925781 8.421875 25.332031 8.679688 23.105469 C 8.742188 22.605469 8.945312 21.875 9.125 21.464844 C 9.320312 21.054688 9.472656 20.683594 9.472656 20.621094 C 9.472656 20.328125 11.417969 17.726562 11.957031 17.320312 C 12.109375 17.191406 12.660156 16.628906 13.171875 16.0625 C 14.746094 14.363281 15.089844 13.144531 14.324219 11.992188 C 14.015625 11.519531 13.796875 11.355469 13.234375 11.136719 C 12.441406 10.839844 12.007812 10.828125 11.058594 11.058594 Z M 10.816406 87.460938 C 11.238281 87.71875 11.6875 87.9375 11.8125 87.9375 C 11.941406 87.9375 12.210938 88.027344 12.414062 88.128906 C 12.863281 88.359375 14.027344 88.691406 14.976562 88.859375 C 15.359375 88.921875 18.507812 89.0625 21.953125 89.152344 C 27.828125 89.304688 28.8125 89.382812 29.953125 89.703125 C 30.195312 89.777344 30.539062 89.882812 30.71875 89.933594 C 31.578125 90.164062 32.433594 91.496094 32.652344 92.902344 C 32.71875 93.375 32.84375 94.132812 32.910156 94.59375 C 33.101562 95.808594 33.242188 97.652344 33.394531 100.609375 C 33.472656 102.054688 33.5625 103.578125 33.585938 104 C 33.691406 105.230469 34.0625 107.53125 34.304688 108.351562 C 34.378906 108.632812 34.523438 109.183594 34.609375 109.566406 C 34.777344 110.273438 36.199219 113.253906 36.59375 113.714844 C 36.761719 113.921875 36.761719 113.945312 36.609375 113.855469 C 36.503906 113.792969 36.109375 113.691406 35.75 113.636719 C 35.378906 113.585938 34.765625 113.484375 34.40625 113.40625 C 34.035156 113.34375 33.332031 113.230469 32.84375 113.164062 C 32.371094 113.089844 31.796875 112.972656 31.566406 112.894531 C 31.347656 112.832031 30.824219 112.664062 30.398438 112.523438 C 29.976562 112.398438 29.464844 112.242188 29.246094 112.191406 C 27.917969 111.898438 22.605469 109.273438 21.761719 108.480469 C 21.582031 108.328125 21.300781 108.121094 21.121094 108.03125 C 20.261719 107.585938 17.394531 105.011719 16.179688 103.589844 C 14.503906 101.632812 14.4375 101.542969 12.964844 99.199219 C 12.199219 97.996094 10.804688 94.9375 10.507812 93.824219 C 10.265625 92.964844 9.84375 91.496094 9.714844 91.136719 C 9.652344 90.957031 9.546875 90.46875 9.484375 90.046875 C 9.40625 89.625 9.292969 89.023438 9.214844 88.703125 C 9.140625 88.382812 9.023438 87.898438 8.960938 87.617188 C 8.894531 87.335938 8.792969 86.898438 8.730469 86.644531 L 8.613281 86.183594 L 9.332031 86.59375 C 9.726562 86.808594 10.394531 87.207031 10.816406 87.460938 Z M 10.816406 87.460938 "/>
<path style=" stroke:none;fill-rule:nonzero;fill:rgb(0%,0%,0%);fill-opacity:1;" d="M 73.34375 27.007812 C 73.242188 27.070312 73 27.136719 72.804688 27.136719 C 72.371094 27.136719 71.015625 27.710938 70.257812 28.210938 C 68.542969 29.363281 67.585938 31.476562 67.800781 33.585938 C 67.902344 34.625 68.429688 35.367188 69.441406 35.929688 C 70.09375 36.289062 70.335938 36.351562 71.078125 36.351562 C 72.039062 36.351562 72.449219 36.1875 72.972656 35.621094 C 73.34375 35.238281 73.726562 34.546875 73.726562 34.277344 C 73.726562 34.1875 73.792969 34.023438 73.855469 33.921875 C 73.945312 33.765625 74.175781 33.933594 74.96875 34.699219 C 76.1875 35.890625 77.03125 36.351562 77.976562 36.351562 C 78.824219 36.351562 79.5 35.96875 80.011719 35.199219 C 80.359375 34.6875 80.382812 34.558594 80.382812 33.421875 C 80.382812 32.089844 80.101562 30.925781 79.589844 30.09375 C 78.796875 28.8125 77.335938 27.621094 76.132812 27.277344 C 75.828125 27.1875 75.40625 27.058594 75.1875 26.996094 C 74.675781 26.839844 73.585938 26.855469 73.34375 27.007812 Z M 73.34375 27.007812 "/>
<path style=" stroke:none;fill-rule:nonzero;fill:rgb(0%,0%,0%);fill-opacity:1;" d="M 40.832031 27.8125 C 40.0625 28.210938 39.832031 28.453125 39.460938 29.273438 C 38.875 30.554688 38.757812 31.078125 38.824219 32.011719 C 38.964844 33.957031 39.589844 35.210938 40.804688 35.980469 C 42.484375 37.042969 44.503906 35.851562 44.839844 33.601562 C 45.105469 31.796875 44.914062 30.335938 44.261719 29.183594 C 43.621094 28.058594 42.996094 27.648438 41.921875 27.648438 C 41.496094 27.648438 41.011719 27.726562 40.832031 27.8125 Z M 40.832031 27.8125 "/>
<path style=" stroke:none;fill-rule:nonzero;fill:rgb(0%,0%,0%);fill-opacity:1;" d="M 52.160156 30.898438 C 51.8125 31.078125 51.390625 31.320312 51.238281 31.449219 C 50.867188 31.757812 50.433594 32.792969 50.433594 33.371094 C 50.433594 33.996094 51.097656 35.328125 51.75 35.992188 C 52.75 37.03125 53.210938 37.300781 54.976562 37.914062 C 56.679688 38.503906 59.441406 38.386719 61.121094 37.65625 C 61.261719 37.59375 61.582031 37.453125 61.835938 37.335938 C 62.679688 36.980469 63.640625 36.007812 64.027344 35.148438 C 64.320312 34.496094 64.371094 34.1875 64.382812 33.253906 C 64.382812 31.808594 64.152344 31.195312 63.476562 30.847656 C 62.835938 30.515625 61.9375 30.527344 60.992188 30.875 C 59.085938 31.566406 56.894531 31.566406 54.785156 30.875 C 53.683594 30.503906 52.953125 30.515625 52.160156 30.898438 Z M 52.160156 30.898438 "/>
</g>
</svg>
