<?xml version="1.0" standalone="no"?>
<!DOCTYPE svg PUBLIC "-//W3C//DTD SVG 20010904//EN"
 "http://www.w3.org/TR/2001/REC-SVG-20010904/DTD/svg10.dtd">
<svg version="1.0" xmlns="http://www.w3.org/2000/svg"
 width="128.000000pt" height="128.000000pt" viewBox="0 0 128.000000 128.000000"
 preserveAspectRatio="xMidYMid meet">

<g transform="translate(0.000000,128.000000) scale(0.100000,-0.100000)"
fill="#000000" stroke="none">
<path d="M168 1199 c-6 -4 -7 -12 -4 -18 5 -8 133 -11 437 -11 l431 0 29 -29
c23 -23 29 -39 29 -70 0 -32 -4 -41 -17 -41 -9 0 -82 -65 -163 -145 l-146
-145 -267 0 c-231 0 -267 -2 -267 -15 0 -13 35 -15 252 -15 l252 0 -59 -60
-59 -60 -148 0 c-136 0 -177 -7 -146 -26 7 -5 66 -8 130 -8 65 0 118 -1 118
-3 0 -1 -11 -19 -25 -39 -30 -44 -44 -89 -52 -170 -5 -55 -3 -63 18 -82 12
-12 31 -22 40 -22 29 0 159 29 182 41 12 6 97 86 190 177 l167 167 0 -232 0
-231 -31 -26 c-17 -14 -35 -26 -40 -26 -5 0 -9 -7 -9 -16 0 -13 6 -15 28 -9
15 3 35 14 46 23 43 39 46 60 46 313 l0 242 75 78 c97 102 99 122 23 208 -29
32 -63 64 -75 71 -16 9 -23 23 -23 42 0 43 -24 93 -57 116 -30 21 -41 21 -463
24 -237 2 -437 0 -442 -3z m1024 -257 c36 -36 58 -67 58 -81 0 -12 -19 -42
-42 -67 l-43 -45 -85 86 -85 86 42 39 c60 56 82 54 155 -18z m-134 -135 l82
-83 -30 -29 -30 -29 -85 84 -85 84 27 28 c15 15 29 28 33 28 3 0 43 -37 88
-83z m-149 -313 c-138 -138 -146 -144 -172 -135 -16 6 -32 24 -41 45 -10 24
-26 40 -50 50 -24 10 -37 23 -42 41 -6 25 7 41 137 171 l144 144 85 -85 85
-85 -146 -146z m-274 -74 c9 0 22 -15 30 -34 8 -19 25 -42 37 -51 20 -13 21
-17 8 -25 -31 -20 -57 -9 -113 48 -56 56 -57 59 -46 90 l11 32 28 -30 c15 -16
35 -30 45 -30z m-57 -93 c35 -36 33 -47 -8 -47 -35 0 -53 21 -44 54 8 34 13
33 52 -7z"/>
<path d="M807 589 c-49 -42 -60 -69 -29 -69 20 0 92 69 92 87 0 25 -18 20 -63
-18z"/>
<path d="M53 1176 c-53 -45 -54 -52 -51 -451 l3 -370 29 -63 c37 -80 123 -162
201 -191 52 -20 76 -21 386 -21 260 0 330 3 327 13 -4 9 -69 13 -266 17 l-262
5 -27 27 c-25 26 -28 36 -33 125 -3 54 -11 109 -18 121 -20 36 -71 52 -162 52
-74 0 -82 2 -112 29 l-33 29 -3 279 c-2 153 0 293 3 312 4 19 20 46 38 62 22
20 28 32 21 39 -8 8 -20 4 -41 -14z m19 -756 c26 -16 51 -20 118 -20 121 0
126 -5 132 -124 4 -73 10 -103 27 -131 l22 -37 -48 7 c-97 14 -182 66 -233
143 -28 43 -39 72 -55 150 -8 38 -6 38 37 12z"/>
<path d="M713 1019 c-26 -10 -40 -48 -22 -60 16 -10 29 -2 29 17 0 20 13 17
34 -7 24 -28 45 -11 29 24 -13 28 -39 38 -70 26z"/>
<path d="M384 1006 c-9 -23 0 -51 16 -51 10 0 15 10 15 29 0 32 -21 47 -31 22z"/>
<path d="M505 980 c-4 -6 -2 -17 5 -24 29 -36 110 -24 110 15 0 16 -4 19 -17
13 -23 -9 -53 -9 -74 0 -10 4 -20 2 -24 -4z"/>
</g>
</svg>
